<svg width="494" height="86" viewBox="0 0 494 86" fill="none" xmlns="http://www.w3.org/2000/svg">
<path fill-rule="evenodd" clip-rule="evenodd" d="M0 0V86L86.0053 0H0ZM51.6059 51.6006L17.2013 86H86.0073L51.6059 51.6006Z" fill="#0072EF"/>
<path fill-rule="evenodd" clip-rule="evenodd" d="M263.28 69.9985L269.309 59.2795C271.834 61.7366 275.144 63.9975 279.618 63.9975C285.742 63.9975 289.578 59.8681 289.578 53.4746L289.554 9.60815H303.511V53.6708C303.511 69.2107 294.006 76.392 280.683 76.392C274.171 76.392 267.948 74.62 263.28 69.9985ZM209.655 51.9603L219.77 23.5775L229.884 51.9603H209.655ZM233.681 63.5887L237.665 75.2139H253.426L228.428 9.61038H211.111L186.017 75.2139H201.773L205.859 63.5887H233.681ZM139.278 48.9522L158.929 75.2142H175.95L148.423 40.3944L174.201 9.61065H157.177L134.195 38.9214V9.61065H120.41V75.2142H134.195V55.0498L139.278 48.9522ZM342.662 51.1319L352.78 23.5775L362.895 51.1319H342.662ZM366.691 64.417L370.679 75.2139H386.44L361.438 9.61038H344.119L319.025 75.2139H334.783L338.866 64.417H366.691ZM442.387 55.5438C442.387 51.4144 439.471 47.8112 434.021 47.8112H416V62.7563H434.021C439.274 62.7563 442.387 60.2649 442.387 55.5438ZM441.124 28.7898C441.124 24.6572 438.206 22.0662 433.538 22.0662H416V36.1829H433.538C438.206 36.1829 441.124 32.9192 441.124 28.7898ZM402.039 75.213V9.60947H436.549C448.902 9.60947 455.226 17.5787 455.226 26.3296C455.226 34.5915 450.167 40.1005 444.04 41.3804C450.943 42.4611 456.489 49.25 456.489 57.512C456.489 67.3466 449.973 75.213 437.62 75.213H402.039ZM494 75.2142H480.215V9.61065H494V75.2142Z" fill="#263240"/>
</svg>
